<svg width="447" height="378" viewBox="0 0 447 378" fill="none" xmlns="http://www.w3.org/2000/svg">
<g filter="url(#filter0_d_94_13)">
<path fill-rule="evenodd" clip-rule="evenodd" d="M192.535 2.21482C227.201 -7.87418 266.763 18.4036 289.432 42.6836C310.889 65.6641 285.863 105.67 309.279 127.251C343.484 158.777 436.893 141.594 442.77 184.008C448.266 223.668 353.754 216.503 326.145 248.965C302.775 276.441 340.625 332.671 304.222 346.903C266.028 361.835 234.39 297.312 192.535 301.2C141.87 305.907 115.228 379.051 65.6537 369.064C23.1278 360.498 24.1886 303.645 22.1021 266.867C20.4225 237.26 57.5222 213.582 55.1555 184.008C52.5056 150.894 -13.1605 122.277 8.30371 94.4412C30.4099 65.7728 92.9825 107.169 127.875 89.7018C163.546 71.845 153.313 13.6295 192.535 2.21482Z" fill="white" fill-opacity="0.1" shape-rendering="crispEdges"/>
</g>
<defs>
<filter id="filter0_d_94_13" x="0" y="0" width="447" height="378" filterUnits="userSpaceOnUse" color-interpolation-filters="sRGB">
<feFlood flood-opacity="0" result="BackgroundImageFix"/>
<feColorMatrix in="SourceAlpha" type="matrix" values="0 0 0 0 0 0 0 0 0 0 0 0 0 0 0 0 0 0 127 0" result="hardAlpha"/>
<feOffset dy="4"/>
<feGaussianBlur stdDeviation="2"/>
<feComposite in2="hardAlpha" operator="out"/>
<feColorMatrix type="matrix" values="0 0 0 0 0 0 0 0 0 0 0 0 0 0 0 0 0 0 0.25 0"/>
<feBlend mode="normal" in2="BackgroundImageFix" result="effect1_dropShadow_94_13"/>
<feBlend mode="normal" in="SourceGraphic" in2="effect1_dropShadow_94_13" result="shape"/>
</filter>
</defs>
</svg>
